<svg width="1402" height="88" viewBox="0 0 1402 88" fill="none" xmlns="http://www.w3.org/2000/svg">
<path d="M1061 37H1400" stroke="#8B8B8B" stroke-width="3" stroke-linecap="round" stroke-linejoin="round"/>
<path d="M413.125 48.4062H395.5L391.812 59H383.594L400.781 13.5H407.875L425.094 59H416.844L413.125 48.4062ZM397.719 42.0312H410.906L404.312 23.1562L397.719 42.0312ZM406.688 1.3125H415.344L406.688 10.7812H400.594L406.688 1.3125ZM447.25 32.125C446.25 31.9583 445.219 31.875 444.156 31.875C440.677 31.875 438.333 33.2083 437.125 35.875V59H429.531V25.1875H436.781L436.969 28.9688C438.802 26.0312 441.344 24.5625 444.594 24.5625C445.677 24.5625 446.573 24.7083 447.281 25L447.25 32.125ZM466.312 59.625C461.5 59.625 457.594 58.1146 454.594 55.0938C451.615 52.0521 450.125 48.0104 450.125 42.9688V42.0312C450.125 38.6562 450.771 35.6458 452.062 33C453.375 30.3333 455.208 28.2604 457.562 26.7812C459.917 25.3021 462.542 24.5625 465.438 24.5625C470.042 24.5625 473.594 26.0312 476.094 28.9688C478.615 31.9062 479.875 36.0625 479.875 41.4375V44.5H457.781C458.01 47.2917 458.938 49.5 460.562 51.125C462.208 52.75 464.271 53.5625 466.75 53.5625C470.229 53.5625 473.062 52.1562 475.25 49.3438L479.344 53.25C477.99 55.2708 476.177 56.8438 473.906 57.9688C471.656 59.0729 469.125 59.625 466.312 59.625ZM465.406 30.6562C463.323 30.6562 461.635 31.3854 460.344 32.8438C459.073 34.3021 458.26 36.3333 457.906 38.9375H472.375V38.375C472.208 35.8333 471.531 33.9167 470.344 32.625C469.156 31.3125 467.51 30.6562 465.406 30.6562ZM506 59C505.667 58.3542 505.375 57.3021 505.125 55.8438C502.708 58.3646 499.75 59.625 496.25 59.625C492.854 59.625 490.083 58.6562 487.938 56.7188C485.792 54.7812 484.719 52.3854 484.719 49.5312C484.719 45.9271 486.052 43.1667 488.719 41.25C491.406 39.3125 495.24 38.3438 500.219 38.3438H504.875V36.125C504.875 34.375 504.385 32.9792 503.406 31.9375C502.427 30.875 500.938 30.3438 498.938 30.3438C497.208 30.3438 495.792 30.7812 494.688 31.6562C493.583 32.5104 493.031 33.6042 493.031 34.9375H485.438C485.438 33.0833 486.052 31.3542 487.281 29.75C488.51 28.125 490.177 26.8542 492.281 25.9375C494.406 25.0208 496.771 24.5625 499.375 24.5625C503.333 24.5625 506.49 25.5625 508.844 27.5625C511.198 29.5417 512.406 32.3333 512.469 35.9375V51.1875C512.469 54.2292 512.896 56.6562 513.75 58.4688V59H506ZM497.656 53.5312C499.156 53.5312 500.562 53.1667 501.875 52.4375C503.208 51.7083 504.208 50.7292 504.875 49.5V43.125H500.781C497.969 43.125 495.854 43.6146 494.438 44.5938C493.021 45.5729 492.312 46.9583 492.312 48.75C492.312 50.2083 492.792 51.375 493.75 52.25C494.729 53.1042 496.031 53.5312 497.656 53.5312ZM539.375 49.8125C539.375 48.4583 538.812 47.4271 537.688 46.7188C536.583 46.0104 534.74 45.3854 532.156 44.8438C529.573 44.3021 527.417 43.6146 525.688 42.7812C521.896 40.9479 520 38.2917 520 34.8125C520 31.8958 521.229 29.4583 523.688 27.5C526.146 25.5417 529.271 24.5625 533.062 24.5625C537.104 24.5625 540.365 25.5625 542.844 27.5625C545.344 29.5625 546.594 32.1562 546.594 35.3438H539C539 33.8854 538.458 32.6771 537.375 31.7188C536.292 30.7396 534.854 30.25 533.062 30.25C531.396 30.25 530.031 30.6354 528.969 31.4062C527.927 32.1771 527.406 33.2083 527.406 34.5C527.406 35.6667 527.896 36.5729 528.875 37.2188C529.854 37.8646 531.833 38.5208 534.812 39.1875C537.792 39.8333 540.125 40.6146 541.812 41.5312C543.521 42.4271 544.781 43.5104 545.594 44.7812C546.427 46.0521 546.844 47.5938 546.844 49.4062C546.844 52.4479 545.583 54.9167 543.062 56.8125C540.542 58.6875 537.24 59.625 533.156 59.625C530.385 59.625 527.917 59.125 525.75 58.125C523.583 57.125 521.896 55.75 520.688 54C519.479 52.25 518.875 50.3646 518.875 48.3438H526.25C526.354 50.1354 527.031 51.5208 528.281 52.5C529.531 53.4583 531.188 53.9375 533.25 53.9375C535.25 53.9375 536.771 53.5625 537.812 52.8125C538.854 52.0417 539.375 51.0417 539.375 49.8125ZM568 41.8438C568 36.6354 569.208 32.4583 571.625 29.3125C574.042 26.1458 577.281 24.5625 581.344 24.5625C584.927 24.5625 587.823 25.8125 590.031 28.3125V11H597.625V59H590.75L590.375 55.5C588.104 58.25 585.073 59.625 581.281 59.625C577.323 59.625 574.115 58.0312 571.656 54.8438C569.219 51.6562 568 47.3229 568 41.8438ZM575.594 42.5C575.594 45.9375 576.25 48.625 577.562 50.5625C578.896 52.4792 580.781 53.4375 583.219 53.4375C586.323 53.4375 588.594 52.0521 590.031 49.2812V34.8438C588.635 32.1354 586.385 30.7812 583.281 30.7812C580.823 30.7812 578.927 31.7604 577.594 33.7188C576.26 35.6562 575.594 38.5833 575.594 42.5ZM620.438 59.625C615.625 59.625 611.719 58.1146 608.719 55.0938C605.74 52.0521 604.25 48.0104 604.25 42.9688V42.0312C604.25 38.6562 604.896 35.6458 606.188 33C607.5 30.3333 609.333 28.2604 611.688 26.7812C614.042 25.3021 616.667 24.5625 619.562 24.5625C624.167 24.5625 627.719 26.0312 630.219 28.9688C632.74 31.9062 634 36.0625 634 41.4375V44.5H611.906C612.135 47.2917 613.062 49.5 614.688 51.125C616.333 52.75 618.396 53.5625 620.875 53.5625C624.354 53.5625 627.188 52.1562 629.375 49.3438L633.469 53.25C632.115 55.2708 630.302 56.8438 628.031 57.9688C625.781 59.0729 623.25 59.625 620.438 59.625ZM619.531 30.6562C617.448 30.6562 615.76 31.3854 614.469 32.8438C613.198 34.3021 612.385 36.3333 612.031 38.9375H626.5V38.375C626.333 35.8333 625.656 33.9167 624.469 32.625C623.281 31.3125 621.635 30.6562 619.531 30.6562ZM664.938 59H657.062V13.5H664.938V59ZM680.969 25.1875L681.188 29.0938C683.688 26.0729 686.969 24.5625 691.031 24.5625C698.073 24.5625 701.656 28.5938 701.781 36.6562V59H694.188V37.0938C694.188 34.9479 693.719 33.3646 692.781 32.3438C691.865 31.3021 690.354 30.7812 688.25 30.7812C685.188 30.7812 682.906 32.1667 681.406 34.9375V59H673.812V25.1875H680.969ZM721.469 49.375L728.625 25.1875H736.469L724.75 59H718.156L706.344 25.1875H714.219L721.469 49.375ZM755.688 59.625C750.875 59.625 746.969 58.1146 743.969 55.0938C740.99 52.0521 739.5 48.0104 739.5 42.9688V42.0312C739.5 38.6562 740.146 35.6458 741.438 33C742.75 30.3333 744.583 28.2604 746.938 26.7812C749.292 25.3021 751.917 24.5625 754.812 24.5625C759.417 24.5625 762.969 26.0312 765.469 28.9688C767.99 31.9062 769.25 36.0625 769.25 41.4375V44.5H747.156C747.385 47.2917 748.312 49.5 749.938 51.125C751.583 52.75 753.646 53.5625 756.125 53.5625C759.604 53.5625 762.438 52.1562 764.625 49.3438L768.719 53.25C767.365 55.2708 765.552 56.8438 763.281 57.9688C761.031 59.0729 758.5 59.625 755.688 59.625ZM754.781 30.6562C752.698 30.6562 751.01 31.3854 749.719 32.8438C748.448 34.3021 747.635 36.3333 747.281 38.9375H761.75V38.375C761.583 35.8333 760.906 33.9167 759.719 32.625C758.531 31.3125 756.885 30.6562 754.781 30.6562ZM794.125 49.8125C794.125 48.4583 793.562 47.4271 792.438 46.7188C791.333 46.0104 789.49 45.3854 786.906 44.8438C784.323 44.3021 782.167 43.6146 780.438 42.7812C776.646 40.9479 774.75 38.2917 774.75 34.8125C774.75 31.8958 775.979 29.4583 778.438 27.5C780.896 25.5417 784.021 24.5625 787.812 24.5625C791.854 24.5625 795.115 25.5625 797.594 27.5625C800.094 29.5625 801.344 32.1562 801.344 35.3438H793.75C793.75 33.8854 793.208 32.6771 792.125 31.7188C791.042 30.7396 789.604 30.25 787.812 30.25C786.146 30.25 784.781 30.6354 783.719 31.4062C782.677 32.1771 782.156 33.2083 782.156 34.5C782.156 35.6667 782.646 36.5729 783.625 37.2188C784.604 37.8646 786.583 38.5208 789.562 39.1875C792.542 39.8333 794.875 40.6146 796.562 41.5312C798.271 42.4271 799.531 43.5104 800.344 44.7812C801.177 46.0521 801.594 47.5938 801.594 49.4062C801.594 52.4479 800.333 54.9167 797.812 56.8125C795.292 58.6875 791.99 59.625 787.906 59.625C785.135 59.625 782.667 59.125 780.5 58.125C778.333 57.125 776.646 55.75 775.438 54C774.229 52.25 773.625 50.3646 773.625 48.3438H781C781.104 50.1354 781.781 51.5208 783.031 52.5C784.281 53.4583 785.938 53.9375 788 53.9375C790 53.9375 791.521 53.5625 792.562 52.8125C793.604 52.0417 794.125 51.0417 794.125 49.8125ZM817.75 16.9688V25.1875H823.719V30.8125H817.75V49.6875C817.75 50.9792 818 51.9167 818.5 52.5C819.021 53.0625 819.938 53.3438 821.25 53.3438C822.125 53.3438 823.01 53.2396 823.906 53.0312V58.9062C822.177 59.3854 820.51 59.625 818.906 59.625C813.073 59.625 810.156 56.4062 810.156 49.9688V30.8125H804.594V25.1875H810.156V16.9688H817.75ZM837.625 59H830.031V25.1875H837.625V59ZM829.562 16.4062C829.562 15.2396 829.927 14.2708 830.656 13.5C831.406 12.7292 832.469 12.3438 833.844 12.3438C835.219 12.3438 836.281 12.7292 837.031 13.5C837.781 14.2708 838.156 15.2396 838.156 16.4062C838.156 17.5521 837.781 18.5104 837.031 19.2812C836.281 20.0312 835.219 20.4062 833.844 20.4062C832.469 20.4062 831.406 20.0312 830.656 19.2812C829.927 18.5104 829.562 17.5521 829.562 16.4062ZM844.594 41.8438C844.594 36.5938 845.823 32.4062 848.281 29.2812C850.76 26.1354 854.042 24.5625 858.125 24.5625C861.979 24.5625 865.01 25.9062 867.219 28.5938L867.562 25.1875H874.406V57.9688C874.406 62.4062 873.021 65.9062 870.25 68.4688C867.5 71.0312 863.781 72.3125 859.094 72.3125C856.615 72.3125 854.188 71.7917 851.812 70.75C849.458 69.7292 847.667 68.3854 846.438 66.7188L850.031 62.1562C852.365 64.9271 855.24 66.3125 858.656 66.3125C861.177 66.3125 863.167 65.625 864.625 64.25C866.083 62.8958 866.812 60.8958 866.812 58.25V55.9688C864.625 58.4062 861.708 59.625 858.062 59.625C854.104 59.625 850.865 58.0521 848.344 54.9062C845.844 51.7604 844.594 47.4062 844.594 41.8438ZM852.156 42.5C852.156 45.8958 852.844 48.5729 854.219 50.5312C855.615 52.4688 857.542 53.4375 860 53.4375C863.062 53.4375 865.333 52.125 866.812 49.5V34.625C865.375 32.0625 863.125 30.7812 860.062 30.7812C857.562 30.7812 855.615 31.7708 854.219 33.75C852.844 35.7292 852.156 38.6458 852.156 42.5ZM902.438 59C902.104 58.3542 901.812 57.3021 901.562 55.8438C899.146 58.3646 896.188 59.625 892.688 59.625C889.292 59.625 886.521 58.6562 884.375 56.7188C882.229 54.7812 881.156 52.3854 881.156 49.5312C881.156 45.9271 882.49 43.1667 885.156 41.25C887.844 39.3125 891.677 38.3438 896.656 38.3438H901.312V36.125C901.312 34.375 900.823 32.9792 899.844 31.9375C898.865 30.875 897.375 30.3438 895.375 30.3438C893.646 30.3438 892.229 30.7812 891.125 31.6562C890.021 32.5104 889.469 33.6042 889.469 34.9375H881.875C881.875 33.0833 882.49 31.3542 883.719 29.75C884.948 28.125 886.615 26.8542 888.719 25.9375C890.844 25.0208 893.208 24.5625 895.812 24.5625C899.771 24.5625 902.927 25.5625 905.281 27.5625C907.635 29.5417 908.844 32.3333 908.906 35.9375V51.1875C908.906 54.2292 909.333 56.6562 910.188 58.4688V59H902.438ZM894.094 53.5312C895.594 53.5312 897 53.1667 898.312 52.4375C899.646 51.7083 900.646 50.7292 901.312 49.5V43.125H897.219C894.406 43.125 892.292 43.6146 890.875 44.5938C889.458 45.5729 888.75 46.9583 888.75 48.75C888.75 50.2083 889.229 51.375 890.188 52.25C891.167 53.1042 892.469 53.5312 894.094 53.5312ZM930.75 53.5625C932.646 53.5625 934.219 53.0104 935.469 51.9062C936.719 50.8021 937.385 49.4375 937.469 47.8125H944.625C944.542 49.9167 943.885 51.8854 942.656 53.7188C941.427 55.5312 939.76 56.9688 937.656 58.0312C935.552 59.0938 933.281 59.625 930.844 59.625C926.115 59.625 922.365 58.0938 919.594 55.0312C916.823 51.9688 915.438 47.7396 915.438 42.3438V41.5625C915.438 36.4167 916.812 32.3021 919.562 29.2188C922.312 26.1146 926.062 24.5625 930.812 24.5625C934.833 24.5625 938.104 25.7396 940.625 28.0938C943.167 30.4271 944.5 33.5 944.625 37.3125H937.469C937.385 35.375 936.719 33.7812 935.469 32.5312C934.24 31.2812 932.667 30.6562 930.75 30.6562C928.292 30.6562 926.396 31.5521 925.062 33.3438C923.729 35.1146 923.052 37.8125 923.031 41.4375V42.6562C923.031 46.3229 923.688 49.0625 925 50.875C926.333 52.6667 928.25 53.5625 930.75 53.5625ZM958.438 59H950.844V25.1875H958.438V59ZM950.375 16.4062C950.375 15.2396 950.74 14.2708 951.469 13.5C952.219 12.7292 953.281 12.3438 954.656 12.3438C956.031 12.3438 957.094 12.7292 957.844 13.5C958.594 14.2708 958.969 15.2396 958.969 16.4062C958.969 17.5521 958.594 18.5104 957.844 19.2812C957.094 20.0312 956.031 20.4062 954.656 20.4062C953.281 20.4062 952.219 20.0312 951.469 19.2812C950.74 18.5104 950.375 17.5521 950.375 16.4062ZM965.312 41.7812C965.312 38.4688 965.969 35.4896 967.281 32.8438C968.594 30.1771 970.438 28.1354 972.812 26.7188C975.188 25.2812 977.917 24.5625 981 24.5625C985.562 24.5625 989.26 26.0312 992.094 28.9688C994.948 31.9062 996.49 35.8021 996.719 40.6562L996.75 42.4375C996.75 45.7708 996.104 48.75 994.812 51.375C993.542 54 991.708 56.0312 989.312 57.4688C986.938 58.9062 984.188 59.625 981.062 59.625C976.292 59.625 972.469 58.0417 969.594 54.875C966.74 51.6875 965.312 47.4479 965.312 42.1562V41.7812ZM972.906 42.4375C972.906 45.9167 973.625 48.6458 975.062 50.625C976.5 52.5833 978.5 53.5625 981.062 53.5625C983.625 53.5625 985.615 52.5625 987.031 50.5625C988.469 48.5625 989.188 45.6354 989.188 41.7812C989.188 38.3646 988.448 35.6562 986.969 33.6562C985.51 31.6562 983.521 30.6562 981 30.6562C978.521 30.6562 976.552 31.6458 975.094 33.625C973.635 35.5833 972.906 38.5208 972.906 42.4375ZM983.094 11H991.75L983.094 20.4688H977L983.094 11ZM1010.22 25.1875L1010.44 29.0938C1012.94 26.0729 1016.22 24.5625 1020.28 24.5625C1027.32 24.5625 1030.91 28.5938 1031.03 36.6562V59H1023.44V37.0938C1023.44 34.9479 1022.97 33.3646 1022.03 32.3438C1021.11 31.3021 1019.6 30.7812 1017.5 30.7812C1014.44 30.7812 1012.16 32.1667 1010.66 34.9375V59H1003.06V25.1875H1010.22Z" fill="#8B8B8B"/>
<path d="M2 37H341" stroke="#8B8B8B" stroke-width="3" stroke-linecap="round" stroke-linejoin="round"/>
</svg>
