<svg width="207" height="46" viewBox="0 0 207 46" fill="none" xmlns="http://www.w3.org/2000/svg">
<path d="M26.0625 24.2832H7.57617V39.4004H29.0508V44H1.95117V1.34375H28.7578V5.97266H7.57617V19.6836H26.0625V24.2832ZM44.9004 36.6465L52.752 12.3008H58.2891L46.9219 44H42.791L31.3066 12.3008H36.8438L44.9004 36.6465ZM76.248 44.5859C71.9512 44.5859 68.4551 43.1797 65.7598 40.3672C63.0645 37.5352 61.7168 33.7559 61.7168 29.0293V28.0332C61.7168 24.8887 62.3125 22.0859 63.5039 19.625C64.7148 17.1445 66.3945 15.2109 68.543 13.8242C70.7109 12.418 73.0547 11.7148 75.5742 11.7148C79.6953 11.7148 82.8984 13.0723 85.1836 15.7871C87.4688 18.502 88.6113 22.3887 88.6113 27.4473V29.7031H67.1367C67.2148 32.8281 68.123 35.3574 69.8613 37.291C71.6191 39.2051 73.8457 40.1621 76.541 40.1621C78.4551 40.1621 80.0762 39.7715 81.4043 38.9902C82.7324 38.209 83.8945 37.1738 84.8906 35.8848L88.2012 38.4629C85.5449 42.5449 81.5605 44.5859 76.248 44.5859ZM75.5742 16.168C73.3867 16.168 71.5508 16.9688 70.0664 18.5703C68.582 20.1523 67.6641 22.3789 67.3125 25.25H83.1914V24.8398C83.0352 22.0859 82.293 19.957 80.9648 18.4531C79.6367 16.9297 77.8398 16.168 75.5742 16.168ZM100.037 12.3008L100.213 16.2852C102.635 13.2383 105.799 11.7148 109.705 11.7148C116.404 11.7148 119.783 15.4941 119.842 23.0527V44H114.422V23.0234C114.402 20.7383 113.875 19.0488 112.84 17.9551C111.824 16.8613 110.232 16.3145 108.064 16.3145C106.307 16.3145 104.764 16.7832 103.436 17.7207C102.107 18.6582 101.072 19.8887 100.33 21.4121V44H94.9102V12.3008H100.037ZM135.369 4.625V12.3008H141.287V16.4902H135.369V36.1484C135.369 37.418 135.633 38.375 136.16 39.0195C136.688 39.6445 137.586 39.957 138.855 39.957C139.48 39.957 140.34 39.8398 141.434 39.6055V44C140.008 44.3906 138.621 44.5859 137.273 44.5859C134.852 44.5859 133.025 43.8535 131.795 42.3887C130.564 40.9238 129.949 38.8438 129.949 36.1484V16.4902H124.178V12.3008H129.949V4.625H135.369ZM145.623 27.8574C145.623 24.752 146.229 21.959 147.439 19.4785C148.67 16.998 150.369 15.084 152.537 13.7363C154.725 12.3887 157.215 11.7148 160.008 11.7148C164.324 11.7148 167.811 13.209 170.467 16.1973C173.143 19.1855 174.48 23.1602 174.48 28.1211V28.502C174.48 31.5879 173.885 34.3613 172.693 36.8223C171.521 39.2637 169.832 41.168 167.625 42.5352C165.438 43.9023 162.918 44.5859 160.066 44.5859C155.77 44.5859 152.283 43.0918 149.607 40.1035C146.951 37.1152 145.623 33.1602 145.623 28.2383V27.8574ZM151.072 28.502C151.072 32.0176 151.883 34.8398 153.504 36.9688C155.145 39.0977 157.332 40.1621 160.066 40.1621C162.82 40.1621 165.008 39.0879 166.629 36.9395C168.25 34.7715 169.061 31.7441 169.061 27.8574C169.061 24.3809 168.23 21.5684 166.57 19.4199C164.93 17.252 162.742 16.168 160.008 16.168C157.332 16.168 155.174 17.2324 153.533 19.3613C151.893 21.4902 151.072 24.5371 151.072 28.502ZM199.734 35.5918C199.734 34.127 199.178 32.9941 198.064 32.1934C196.971 31.373 195.047 30.6699 192.293 30.084C189.559 29.498 187.381 28.7949 185.76 27.9746C184.158 27.1543 182.967 26.1777 182.186 25.0449C181.424 23.9121 181.043 22.5645 181.043 21.002C181.043 18.4043 182.137 16.207 184.324 14.4102C186.531 12.6133 189.344 11.7148 192.762 11.7148C196.355 11.7148 199.266 12.6426 201.492 14.498C203.738 16.3535 204.861 18.7266 204.861 21.6172H199.412C199.412 20.1328 198.777 18.8535 197.508 17.7793C196.258 16.7051 194.676 16.168 192.762 16.168C190.789 16.168 189.246 16.5977 188.133 17.457C187.02 18.3164 186.463 19.4395 186.463 20.8262C186.463 22.1348 186.98 23.1211 188.016 23.7852C189.051 24.4492 190.916 25.084 193.611 25.6895C196.326 26.2949 198.523 27.0176 200.203 27.8574C201.883 28.6973 203.123 29.7129 203.924 30.9043C204.744 32.0762 205.154 33.5117 205.154 35.2109C205.154 38.043 204.021 40.3184 201.756 42.0371C199.49 43.7363 196.551 44.5859 192.938 44.5859C190.398 44.5859 188.152 44.1367 186.199 43.2383C184.246 42.3398 182.713 41.0898 181.6 39.4883C180.506 37.8672 179.959 36.1191 179.959 34.2441H185.379C185.477 36.0605 186.199 37.5059 187.547 38.5801C188.914 39.6348 190.711 40.1621 192.938 40.1621C194.988 40.1621 196.629 39.752 197.859 38.9316C199.109 38.0918 199.734 36.9785 199.734 35.5918Z" fill="#1C768D"/>
<path d="M26.0625 24.2832V25.2832H27.0625V24.2832H26.0625ZM7.57617 24.2832V23.2832H6.57617V24.2832H7.57617ZM7.57617 39.4004H6.57617V40.4004H7.57617V39.4004ZM29.0508 39.4004H30.0508V38.4004H29.0508V39.4004ZM29.0508 44V45H30.0508V44H29.0508ZM1.95117 44H0.951172V45H1.95117V44ZM1.95117 1.34375V0.34375H0.951172V1.34375H1.95117ZM28.7578 1.34375H29.7578V0.34375H28.7578V1.34375ZM28.7578 5.97266V6.97266H29.7578V5.97266H28.7578ZM7.57617 5.97266V4.97266H6.57617V5.97266H7.57617ZM7.57617 19.6836H6.57617V20.6836H7.57617V19.6836ZM26.0625 19.6836H27.0625V18.6836H26.0625V19.6836ZM26.0625 23.2832H7.57617V25.2832H26.0625V23.2832ZM6.57617 24.2832V39.4004H8.57617V24.2832H6.57617ZM7.57617 40.4004H29.0508V38.4004H7.57617V40.4004ZM28.0508 39.4004V44H30.0508V39.4004H28.0508ZM29.0508 43H1.95117V45H29.0508V43ZM2.95117 44V1.34375H0.951172V44H2.95117ZM1.95117 2.34375H28.7578V0.34375H1.95117V2.34375ZM27.7578 1.34375V5.97266H29.7578V1.34375H27.7578ZM28.7578 4.97266H7.57617V6.97266H28.7578V4.97266ZM6.57617 5.97266V19.6836H8.57617V5.97266H6.57617ZM7.57617 20.6836H26.0625V18.6836H7.57617V20.6836ZM25.0625 19.6836V24.2832H27.0625V19.6836H25.0625ZM44.9004 36.6465L43.951 36.9607L44.9126 39.8665L45.8521 36.9534L44.9004 36.6465ZM52.752 12.3008V11.3008H52.0237L51.8002 11.9938L52.752 12.3008ZM58.2891 12.3008L59.2304 12.6383L59.71 11.3008H58.2891V12.3008ZM46.9219 44V45H47.6256L47.8632 44.3375L46.9219 44ZM42.791 44L41.8508 44.3406L42.0897 45H42.791V44ZM31.3066 12.3008V11.3008H29.8807L30.3664 12.6414L31.3066 12.3008ZM36.8438 12.3008L37.7931 11.9866L37.5662 11.3008H36.8438V12.3008ZM45.8521 36.9534L53.7037 12.6077L51.8002 11.9938L43.9487 36.3396L45.8521 36.9534ZM52.752 13.3008H58.2891V11.3008H52.752V13.3008ZM57.3478 11.9632L45.9806 43.6625L47.8632 44.3375L59.2304 12.6383L57.3478 11.9632ZM46.9219 43H42.791V45H46.9219V43ZM43.7312 43.6594L32.2468 11.9602L30.3664 12.6414L41.8508 44.3406L43.7312 43.6594ZM31.3066 13.3008H36.8438V11.3008H31.3066V13.3008ZM35.8944 12.615L43.951 36.9607L45.8498 36.3323L37.7931 11.9866L35.8944 12.615ZM65.7598 40.3672L65.0354 41.0566L65.0378 41.0591L65.7598 40.3672ZM63.5039 19.625L62.6053 19.1863L62.6038 19.1893L63.5039 19.625ZM68.543 13.8242L69.0853 14.6644L69.0872 14.6632L68.543 13.8242ZM85.1836 15.7871L84.4185 16.4311L85.1836 15.7871ZM88.6113 29.7031V30.7031H89.6113V29.7031H88.6113ZM67.1367 29.7031V28.7031H66.1114L66.137 29.7281L67.1367 29.7031ZM69.8613 37.291L69.1176 37.9596L69.1248 37.9674L69.8613 37.291ZM84.8906 35.8848L85.5051 35.0958L84.7131 34.479L84.0993 35.2733L84.8906 35.8848ZM88.2012 38.4629L89.0393 39.0083L89.5404 38.2383L88.8156 37.6739L88.2012 38.4629ZM70.0664 18.5703L70.7957 19.2546L70.7998 19.2501L70.0664 18.5703ZM67.3125 25.25L66.3199 25.1285L66.1826 26.25H67.3125V25.25ZM83.1914 25.25V26.25H84.1914V25.25H83.1914ZM83.1914 24.8398H84.1914V24.8115L84.1898 24.7832L83.1914 24.8398ZM80.9648 18.4531L80.2111 19.1103L80.2153 19.1151L80.9648 18.4531ZM76.248 43.5859C72.1927 43.5859 68.968 42.2696 66.4818 39.6753L65.0378 41.0591C67.9422 44.0897 71.7096 45.5859 76.248 45.5859V43.5859ZM66.4841 39.6778C64.0014 37.0691 62.7168 33.556 62.7168 29.0293H60.7168C60.7168 33.9557 62.1275 38.0012 65.0354 41.0566L66.4841 39.6778ZM62.7168 29.0293V28.0332H60.7168V29.0293H62.7168ZM62.7168 28.0332C62.7168 25.0169 63.2875 22.3668 64.404 20.0607L62.6038 19.1893C61.3375 21.8051 60.7168 24.7604 60.7168 28.0332H62.7168ZM64.4025 20.0637C65.5401 17.7335 67.1021 15.9444 69.0853 14.6644L68.0007 12.984C65.6869 14.4774 63.8896 16.5555 62.6053 19.1863L64.4025 20.0637ZM69.0872 14.6632C71.0975 13.3592 73.253 12.7148 75.5742 12.7148V10.7148C72.8564 10.7148 70.3244 11.4768 67.9988 12.9853L69.0872 14.6632ZM75.5742 12.7148C79.4532 12.7148 82.355 13.9796 84.4185 16.4311L85.9486 15.1431C83.4418 12.165 79.9374 10.7148 75.5742 10.7148V12.7148ZM84.4185 16.4311C86.4987 18.9024 87.6113 22.5257 87.6113 27.4473H89.6113C89.6113 22.2516 88.4388 18.1015 85.9486 15.1431L84.4185 16.4311ZM87.6113 27.4473V29.7031H89.6113V27.4473H87.6113ZM88.6113 28.7031H67.1367V30.7031H88.6113V28.7031ZM66.137 29.7281C66.2198 33.0409 67.1894 35.8146 69.1177 37.9596L70.605 36.6225C69.0567 34.9002 68.2098 32.6153 68.1364 29.6781L66.137 29.7281ZM69.1248 37.9674C71.0798 40.0962 73.5775 41.1621 76.541 41.1621V39.1621C74.1139 39.1621 72.1585 38.3139 70.5979 36.6146L69.1248 37.9674ZM76.541 41.1621C78.5905 41.1621 80.3964 40.7433 81.9113 39.8522L80.8973 38.1283C79.756 38.7997 78.3196 39.1621 76.541 39.1621V41.1621ZM81.9113 39.8522C83.3555 39.0027 84.6124 37.8803 85.6819 36.4962L84.0993 35.2733C83.1767 36.4674 82.1094 37.4153 80.8973 38.1283L81.9113 39.8522ZM84.2762 36.6737L87.5867 39.2519L88.8156 37.6739L85.5051 35.0958L84.2762 36.6737ZM87.363 37.9175C84.9103 41.6867 81.2588 43.5859 76.248 43.5859V45.5859C81.8623 45.5859 86.1795 43.4032 89.0393 39.0083L87.363 37.9175ZM75.5742 15.168C73.1089 15.168 71.007 16.0844 69.333 17.8905L70.7998 19.2501C72.0946 17.8531 73.6646 17.168 75.5742 17.168V15.168ZM69.3372 17.8861C67.6659 19.6673 66.6888 22.1162 66.3199 25.1285L68.3051 25.3715C68.6394 22.6416 69.4981 20.6374 70.7957 19.2546L69.3372 17.8861ZM67.3125 26.25H83.1914V24.25H67.3125V26.25ZM84.1914 25.25V24.8398H82.1914V25.25H84.1914ZM84.1898 24.7832C84.0256 21.8883 83.238 19.5164 81.7144 17.7912L80.2153 19.1151C81.348 20.3977 82.0448 22.2836 82.193 24.8965L84.1898 24.7832ZM81.7186 17.796C80.1763 16.0269 78.0898 15.168 75.5742 15.168V17.168C77.5899 17.168 79.0971 17.8325 80.2111 19.1103L81.7186 17.796ZM100.037 12.3008L101.036 12.2567L100.994 11.3008H100.037V12.3008ZM100.213 16.2852L99.2139 16.3292L99.3317 19.0008L100.996 16.9074L100.213 16.2852ZM119.842 23.0527H120.842L120.842 23.045L119.842 23.0527ZM119.842 44V45H120.842V44H119.842ZM114.422 44H113.422V45H114.422V44ZM114.422 23.0234H115.422L115.422 23.0149L114.422 23.0234ZM112.84 17.9551L112.107 18.6356L112.114 18.6425L112.84 17.9551ZM100.33 21.4121L99.4311 20.9741L99.3301 21.1815V21.4121H100.33ZM100.33 44V45H101.33V44H100.33ZM94.9102 44H93.9102V45H94.9102V44ZM94.9102 12.3008V11.3008H93.9102V12.3008H94.9102ZM99.0381 12.3449L99.2139 16.3292L101.212 16.2411L101.036 12.2567L99.0381 12.3449ZM100.996 16.9074C103.227 14.1002 106.102 12.7148 109.705 12.7148V10.7148C105.495 10.7148 102.042 12.3764 99.4301 15.6629L100.996 16.9074ZM109.705 12.7148C112.867 12.7148 115.074 13.601 116.518 15.2158C117.982 16.8531 118.814 19.4083 118.842 23.0605L120.842 23.045C120.811 19.1386 119.924 16.0248 118.009 13.8828C116.074 11.7183 113.243 10.7148 109.705 10.7148V12.7148ZM118.842 23.0527V44H120.842V23.0527H118.842ZM119.842 43H114.422V45H119.842V43ZM115.422 44V23.0234H113.422V44H115.422ZM115.422 23.0149C115.401 20.6043 114.846 18.6202 113.566 17.2677L112.114 18.6425C112.904 19.4774 113.403 20.8723 113.422 23.032L115.422 23.0149ZM113.573 17.2746C112.296 15.8995 110.383 15.3145 108.064 15.3145V17.3145C110.082 17.3145 111.353 17.8232 112.107 18.6355L113.573 17.2746ZM108.064 15.3145C106.118 15.3145 104.37 15.8373 102.859 16.9037L104.012 18.5377C105.158 17.7291 106.495 17.3145 108.064 17.3145V15.3145ZM102.859 16.9037C101.387 17.9426 100.244 19.3059 99.4311 20.9741L101.229 21.8501C101.901 20.4714 102.828 19.3738 104.012 18.5377L102.859 16.9037ZM99.3301 21.4121V44H101.33V21.4121H99.3301ZM100.33 43H94.9102V45H100.33V43ZM95.9102 44V12.3008H93.9102V44H95.9102ZM94.9102 13.3008H100.037V11.3008H94.9102V13.3008ZM135.369 4.625H136.369V3.625H135.369V4.625ZM135.369 12.3008H134.369V13.3008H135.369V12.3008ZM141.287 12.3008H142.287V11.3008H141.287V12.3008ZM141.287 16.4902V17.4902H142.287V16.4902H141.287ZM135.369 16.4902V15.4902H134.369V16.4902H135.369ZM136.16 39.0195L135.386 39.6528L135.391 39.6586L135.396 39.6644L136.16 39.0195ZM141.434 39.6055H142.434V38.3685L141.224 38.6277L141.434 39.6055ZM141.434 44L141.698 44.9645L142.434 44.7629V44H141.434ZM129.949 16.4902H130.949V15.4902H129.949V16.4902ZM124.178 16.4902H123.178V17.4902H124.178V16.4902ZM124.178 12.3008V11.3008H123.178V12.3008H124.178ZM129.949 12.3008V13.3008H130.949V12.3008H129.949ZM129.949 4.625V3.625H128.949V4.625H129.949ZM134.369 4.625V12.3008H136.369V4.625H134.369ZM135.369 13.3008H141.287V11.3008H135.369V13.3008ZM140.287 12.3008V16.4902H142.287V12.3008H140.287ZM141.287 15.4902H135.369V17.4902H141.287V15.4902ZM134.369 16.4902V36.1484H136.369V16.4902H134.369ZM134.369 36.1484C134.369 37.5332 134.653 38.7569 135.386 39.6528L136.934 38.3863C136.612 37.9931 136.369 37.3027 136.369 36.1484H134.369ZM135.396 39.6644C136.198 40.6149 137.454 40.957 138.855 40.957V38.957C137.718 38.957 137.177 38.6742 136.924 38.3747L135.396 39.6644ZM138.855 40.957C139.585 40.957 140.525 40.8228 141.643 40.5833L141.224 38.6277C140.154 38.8569 139.376 38.957 138.855 38.957V40.957ZM140.434 39.6055V44H142.434V39.6055H140.434ZM141.169 43.0355C139.821 43.4048 138.524 43.5859 137.273 43.5859V45.5859C138.719 45.5859 140.194 45.3764 141.698 44.9645L141.169 43.0355ZM137.273 43.5859C135.062 43.5859 133.552 42.9262 132.561 41.7455L131.029 43.0319C132.498 44.7808 134.641 45.5859 137.273 45.5859V43.5859ZM132.561 41.7455C131.533 40.5222 130.949 38.7035 130.949 36.1484H128.949C128.949 38.984 129.596 41.3255 131.029 43.0319L132.561 41.7455ZM130.949 36.1484V16.4902H128.949V36.1484H130.949ZM129.949 15.4902H124.178V17.4902H129.949V15.4902ZM125.178 16.4902V12.3008H123.178V16.4902H125.178ZM124.178 13.3008H129.949V11.3008H124.178V13.3008ZM130.949 12.3008V4.625H128.949V12.3008H130.949ZM129.949 5.625H135.369V3.625H129.949V5.625ZM147.439 19.4785L146.544 19.0341L146.541 19.0398L147.439 19.4785ZM152.537 13.7363L152.013 12.8849L152.009 12.887L152.537 13.7363ZM170.467 16.1973L169.719 16.8616L169.722 16.8643L170.467 16.1973ZM172.693 36.8223L171.793 36.3865L171.792 36.3895L172.693 36.8223ZM167.625 42.5352L167.098 41.685L167.095 41.6872L167.625 42.5352ZM149.607 40.1035L148.86 40.7679L148.862 40.7706L149.607 40.1035ZM153.504 36.9688L152.708 37.5746L152.712 37.5792L153.504 36.9688ZM166.629 36.9395L167.427 37.5418L167.43 37.5383L166.629 36.9395ZM166.57 19.4199L165.773 20.0234L165.779 20.0314L166.57 19.4199ZM146.623 27.8574C146.623 24.8848 147.202 22.2448 148.338 19.9172L146.541 19.0398C145.255 21.6731 144.623 24.6191 144.623 27.8574H146.623ZM148.335 19.9229C149.49 17.5943 151.068 15.8268 153.065 14.5856L152.009 12.887C149.67 14.3411 147.849 16.4018 146.544 19.0341L148.335 19.9229ZM153.062 14.5877C155.078 13.3456 157.383 12.7148 160.008 12.7148V10.7148C157.046 10.7148 154.371 11.4317 152.013 12.8849L153.062 14.5877ZM160.008 12.7148C164.064 12.7148 167.269 14.1052 169.719 16.8616L171.214 15.5329C168.352 12.3127 164.584 10.7148 160.008 10.7148V12.7148ZM169.722 16.8643C172.197 19.6285 173.48 23.3456 173.48 28.1211H175.48C175.48 22.9748 174.088 18.7426 171.212 15.5302L169.722 16.8643ZM173.48 28.1211V28.502H175.48V28.1211H173.48ZM173.48 28.502C173.48 31.4565 172.911 34.078 171.793 36.3865L173.593 37.258C174.859 34.6447 175.48 31.7193 175.48 28.502H173.48ZM171.792 36.3895C170.699 38.6667 169.136 40.4228 167.098 41.6851L168.152 43.3853C170.528 41.9131 172.344 39.8606 173.595 37.255L171.792 36.3895ZM167.095 41.6872C165.083 42.9447 162.751 43.5859 160.066 43.5859V45.5859C163.085 45.5859 165.792 44.86 168.155 43.3832L167.095 41.6872ZM160.066 43.5859C156.031 43.5859 152.824 42.1964 150.352 39.4364L148.862 40.7706C151.743 43.9872 155.508 45.5859 160.066 45.5859V43.5859ZM150.355 39.4392C147.897 36.6737 146.623 32.9743 146.623 28.2383H144.623C144.623 33.3461 146.006 37.5568 148.86 40.7679L150.355 39.4392ZM146.623 28.2383V27.8574H144.623V28.2383H146.623ZM150.072 28.502C150.072 32.1678 150.918 35.2238 152.708 37.5746L154.299 36.3629C152.847 34.4559 152.072 31.8674 152.072 28.502H150.072ZM152.712 37.5792C154.546 39.9587 157.028 41.1621 160.066 41.1621V39.1621C157.636 39.1621 155.743 38.2366 154.296 36.3583L152.712 37.5792ZM160.066 41.1621C163.125 41.1621 165.612 39.9474 167.427 37.5418L165.831 36.3371C164.404 38.2284 162.515 39.1621 160.066 39.1621V41.1621ZM167.43 37.5383C169.226 35.1366 170.061 31.8691 170.061 27.8574H168.061C168.061 31.6192 167.274 34.4064 165.828 36.3406L167.43 37.5383ZM170.061 27.8574C170.061 24.2223 169.191 21.1759 167.362 18.8085L165.779 20.0314C167.27 21.9608 168.061 24.5394 168.061 27.8574H170.061ZM167.368 18.8165C165.537 16.397 163.053 15.168 160.008 15.168V17.168C162.431 17.168 164.323 18.1069 165.773 20.0234L167.368 18.8165ZM160.008 15.168C157.02 15.168 154.57 16.3776 152.741 18.7509L154.325 19.9717C155.778 18.0872 157.644 17.168 160.008 17.168V15.168ZM152.741 18.7509C150.915 21.1206 150.072 24.417 150.072 28.502H152.072C152.072 24.6572 152.87 21.8599 154.325 19.9717L152.741 18.7509ZM198.064 32.1934L197.464 32.9934L197.472 32.9993L197.481 33.0052L198.064 32.1934ZM192.293 30.084L192.083 31.0618L192.085 31.0621L192.293 30.084ZM185.76 27.9746L185.304 28.8647L185.308 28.8669L185.76 27.9746ZM182.186 25.0449L181.356 25.603L181.362 25.6127L182.186 25.0449ZM184.324 14.4102L183.693 13.6347L183.689 13.6374L184.324 14.4102ZM201.492 14.498L200.852 15.2663L200.855 15.269L201.492 14.498ZM204.861 21.6172V22.6172H205.861V21.6172H204.861ZM199.412 21.6172H198.412V22.6172H199.412V21.6172ZM197.508 17.7793L196.856 18.5377L196.862 18.5427L197.508 17.7793ZM193.611 25.6895L193.392 26.6651L193.394 26.6655L193.611 25.6895ZM200.203 27.8574L199.756 28.7519L200.203 27.8574ZM203.924 30.9043L203.094 31.4621L203.099 31.47L203.105 31.4778L203.924 30.9043ZM201.756 42.0371L202.356 42.8371L202.36 42.8338L201.756 42.0371ZM181.6 39.4883L180.771 40.0476L180.779 40.0591L181.6 39.4883ZM179.959 34.2441V33.2441H178.959V34.2441H179.959ZM185.379 34.2441L186.377 34.1905L186.327 33.2441H185.379V34.2441ZM187.547 38.5801L186.924 39.3621L186.93 39.367L186.936 39.3719L187.547 38.5801ZM197.859 38.9316L198.414 39.7637L198.417 39.7617L197.859 38.9316ZM200.734 35.5918C200.734 33.8309 200.043 32.3848 198.648 31.3816L197.481 33.0052C198.312 33.6035 198.734 34.423 198.734 35.5918H200.734ZM198.664 31.3934C197.386 30.4344 195.278 29.6967 192.501 29.1059L192.085 31.0621C194.816 31.6432 196.556 32.3117 197.464 32.9934L198.664 31.3934ZM192.503 29.1062C189.812 28.5297 187.726 27.849 186.211 27.0823L185.308 28.8669C187.035 29.7409 189.305 30.4664 192.083 31.0618L192.503 29.1062ZM186.216 27.0846C184.717 26.3172 183.672 25.4384 183.009 24.4772L181.362 25.6127C182.262 26.9171 183.599 27.9914 185.304 28.8647L186.216 27.0846ZM183.015 24.4869C182.38 23.542 182.043 22.3953 182.043 21.002H180.043C180.043 22.7336 180.468 24.2822 181.356 25.6029L183.015 24.4869ZM182.043 21.002C182.043 18.7329 182.979 16.8092 184.959 15.1829L183.689 13.6374C181.294 15.6048 180.043 18.0757 180.043 21.002H182.043ZM184.956 15.1856C186.95 13.5617 189.526 12.7148 192.762 12.7148V10.7148C189.162 10.7148 186.112 11.6649 183.693 13.6347L184.956 15.1856ZM192.762 12.7148C196.179 12.7148 198.845 13.5939 200.852 15.2663L202.132 13.7298C199.686 11.6913 196.532 10.7148 192.762 10.7148V12.7148ZM200.855 15.269C202.874 16.9362 203.861 19.0276 203.861 21.6172H205.861C205.861 18.4256 204.603 15.7708 202.129 13.7271L200.855 15.269ZM204.861 20.6172H199.412V22.6172H204.861V20.6172ZM200.412 21.6172C200.412 19.8011 199.617 18.2544 198.154 17.0159L196.862 18.5427C197.937 19.4526 198.412 20.4645 198.412 21.6172H200.412ZM198.16 17.0209C196.699 15.7661 194.874 15.168 192.762 15.168V17.168C194.477 17.168 195.816 17.644 196.856 18.5377L198.16 17.0209ZM192.762 15.168C190.655 15.168 188.868 15.6259 187.522 16.6654L188.744 18.2486C189.624 17.5694 190.923 17.168 192.762 17.168V15.168ZM187.522 16.6654C186.167 17.711 185.463 19.1245 185.463 20.8262H187.463C187.463 19.7544 187.872 18.9218 188.744 18.2486L187.522 16.6654ZM185.463 20.8262C185.463 22.4492 186.132 23.7652 187.476 24.6269L188.556 22.9435C187.828 22.477 187.463 21.8203 187.463 20.8262H185.463ZM187.476 24.6269C188.671 25.3939 190.689 26.058 193.392 26.6651L193.831 24.7138C191.143 24.11 189.43 23.5045 188.556 22.9435L187.476 24.6269ZM193.394 26.6655C196.063 27.2608 198.175 27.9614 199.756 28.7519L200.65 26.963C198.872 26.0738 196.589 25.329 193.829 24.7134L193.394 26.6655ZM199.756 28.7519C201.327 29.5376 202.415 30.4517 203.094 31.4621L204.754 30.3465C203.831 28.9741 202.438 27.857 200.65 26.963L199.756 28.7519ZM203.105 31.4778C203.786 32.4519 204.154 33.6774 204.154 35.2109H206.154C206.154 33.346 205.702 31.7005 204.743 30.3308L203.105 31.4778ZM204.154 35.2109C204.154 37.7286 203.169 39.7098 201.151 41.2404L202.36 42.8338C204.874 40.9269 206.154 38.3573 206.154 35.2109H204.154ZM201.156 41.2371C199.106 42.7745 196.395 43.5859 192.938 43.5859V45.5859C196.707 45.5859 199.874 44.6981 202.356 42.8371L201.156 41.2371ZM192.938 43.5859C190.517 43.5859 188.418 43.158 186.617 42.3298L185.781 44.1468C187.887 45.1154 190.28 45.5859 192.938 45.5859V43.5859ZM186.617 42.3298C184.809 41.4981 183.422 40.3579 182.421 38.9175L180.779 40.0591C182.004 41.8218 183.683 43.1816 185.781 44.1468L186.617 42.3298ZM182.429 38.929C181.441 37.4656 180.959 35.911 180.959 34.2441H178.959C178.959 36.3273 179.57 38.2688 180.771 40.0476L182.429 38.929ZM179.959 35.2441H185.379V33.2441H179.959V35.2441ZM184.38 34.2978C184.492 36.3815 185.339 38.0989 186.924 39.3621L188.17 37.7981C187.06 36.9128 186.461 35.7396 186.377 34.1905L184.38 34.2978ZM186.936 39.3719C188.523 40.5963 190.554 41.1621 192.938 41.1621V39.1621C190.867 39.1621 189.305 38.6733 188.158 37.7883L186.936 39.3719ZM192.938 41.1621C195.112 41.1621 196.967 40.7283 198.414 39.7637L197.305 38.0996C196.291 38.7756 194.865 39.1621 192.938 39.1621V41.1621ZM198.417 39.7617C199.915 38.755 200.734 37.3441 200.734 35.5918H198.734C198.734 36.6129 198.303 37.4286 197.302 38.1016L198.417 39.7617Z" fill="#1C768D"/>
</svg>
