<svg width="1402" height="88" viewBox="0 0 1402 88" fill="none" xmlns="http://www.w3.org/2000/svg">
<path d="M1061 37H1400" stroke="#8B8B8B" stroke-width="3" stroke-linecap="round" stroke-linejoin="round"/>
<path d="M487.25 42.5664C487.25 47.6055 486.359 52.0234 484.578 55.8203C482.797 59.6172 480.242 62.5469 476.914 64.6094C473.609 66.6719 469.812 67.7031 465.523 67.7031C461.281 67.7031 457.496 66.6836 454.168 64.6445C450.84 62.6055 448.262 59.6992 446.434 55.9258C444.605 52.1289 443.68 47.7695 443.656 42.8477V40.3164C443.656 35.2773 444.559 30.8477 446.363 27.0273C448.191 23.1836 450.758 20.2422 454.062 18.2031C457.391 16.1406 461.188 15.1094 465.453 15.1094C469.719 15.1094 473.504 16.1406 476.809 18.2031C480.137 20.2422 482.703 23.1836 484.508 27.0273C486.336 30.8477 487.25 35.2656 487.25 40.2812V42.5664ZM476.562 40.2461C476.562 34.8789 475.602 30.8008 473.68 28.0117C471.758 25.2227 469.016 23.8281 465.453 23.8281C461.914 23.8281 459.184 25.2109 457.262 27.9766C455.34 30.7188 454.367 34.75 454.344 40.0703V42.5664C454.344 47.793 455.305 51.8477 457.227 54.7305C459.148 57.6133 461.914 59.0547 465.523 59.0547C469.062 59.0547 471.781 57.6719 473.68 54.9062C475.578 52.1172 476.539 48.0625 476.562 42.7422V40.2461ZM513.863 48.2617H505.461V67H494.914V15.8125H513.934C519.98 15.8125 524.645 17.1602 527.926 19.8555C531.207 22.5508 532.848 26.3594 532.848 31.2812C532.848 34.7734 532.086 37.6914 530.562 40.0352C529.062 42.3555 526.777 44.207 523.707 45.5898L534.781 66.5078V67H523.461L513.863 48.2617ZM505.461 39.7188H513.969C516.617 39.7188 518.668 39.0508 520.121 37.7148C521.574 36.3555 522.301 34.4922 522.301 32.125C522.301 29.7109 521.609 27.8125 520.227 26.4297C518.867 25.0469 516.77 24.3555 513.934 24.3555H505.461V39.7188ZM581.398 60.5312C579.5 62.8047 576.816 64.5742 573.348 65.8398C569.879 67.082 566.035 67.7031 561.816 67.7031C557.387 67.7031 553.496 66.7422 550.145 64.8203C546.816 62.875 544.238 60.0625 542.41 56.3828C540.605 52.7031 539.68 48.3789 539.633 43.4102V39.9297C539.633 34.8203 540.488 30.4023 542.199 26.6758C543.934 22.9258 546.418 20.0664 549.652 18.0977C552.91 16.1055 556.719 15.1094 561.078 15.1094C567.148 15.1094 571.895 16.5625 575.316 19.4688C578.738 22.3516 580.766 26.5586 581.398 32.0898H571.133C570.664 29.1602 569.621 27.0156 568.004 25.6562C566.41 24.2969 564.207 23.6172 561.395 23.6172C557.809 23.6172 555.078 24.9648 553.203 27.6602C551.328 30.3555 550.379 34.3633 550.355 39.6836V42.9531C550.355 48.3203 551.375 52.375 553.414 55.1172C555.453 57.8594 558.441 59.2305 562.379 59.2305C566.34 59.2305 569.164 58.3867 570.852 56.6992V47.875H561.254V40.1055H581.398V60.5312ZM618.875 56.4531H600.383L596.867 67H585.652L604.707 15.8125H614.48L633.641 67H622.426L618.875 56.4531ZM603.23 47.9102H616.027L609.594 28.75L603.23 47.9102ZM680.047 67H669.5L648.969 33.3203V67H638.422V15.8125H648.969L669.535 49.5625V15.8125H680.047V67ZM700.473 67H689.926V15.8125H700.473V67ZM750.781 60.5312C748.883 62.8047 746.199 64.5742 742.73 65.8398C739.262 67.082 735.418 67.7031 731.199 67.7031C726.77 67.7031 722.879 66.7422 719.527 64.8203C716.199 62.875 713.621 60.0625 711.793 56.3828C709.988 52.7031 709.062 48.3789 709.016 43.4102V39.9297C709.016 34.8203 709.871 30.4023 711.582 26.6758C713.316 22.9258 715.801 20.0664 719.035 18.0977C722.293 16.1055 726.102 15.1094 730.461 15.1094C736.531 15.1094 741.277 16.5625 744.699 19.4688C748.121 22.3516 750.148 26.5586 750.781 32.0898H740.516C740.047 29.1602 739.004 27.0156 737.387 25.6562C735.793 24.2969 733.59 23.6172 730.777 23.6172C727.191 23.6172 724.461 24.9648 722.586 27.6602C720.711 30.3555 719.762 34.3633 719.738 39.6836V42.9531C719.738 48.3203 720.758 52.375 722.797 55.1172C724.836 57.8594 727.824 59.2305 731.762 59.2305C735.723 59.2305 738.547 58.3867 740.234 56.6992V47.875H730.637V40.1055H750.781V60.5312ZM778.309 48.2617H769.906V67H759.359V15.8125H778.379C784.426 15.8125 789.09 17.1602 792.371 19.8555C795.652 22.5508 797.293 26.3594 797.293 31.2812C797.293 34.7734 796.531 37.6914 795.008 40.0352C793.508 42.3555 791.223 44.207 788.152 45.5898L799.227 66.5078V67H787.906L778.309 48.2617ZM769.906 39.7188H778.414C781.062 39.7188 783.113 39.0508 784.566 37.7148C786.02 36.3555 786.746 34.4922 786.746 32.125C786.746 29.7109 786.055 27.8125 784.672 26.4297C783.312 25.0469 781.215 24.3555 778.379 24.3555H769.906V39.7188ZM834.242 56.4531H815.75L812.234 67H801.02L820.074 15.8125H829.848L849.008 67H837.793L834.242 56.4531ZM818.598 47.9102H831.395L824.961 28.75L818.598 47.9102ZM867.57 15.8125L880.719 52.9375L893.797 15.8125H907.648V67H897.066V53.0078L898.121 28.8555L884.305 67H877.062L863.281 28.8906L864.336 53.0078V67H853.789V15.8125H867.57ZM946.391 56.4531H927.898L924.383 67H913.168L932.223 15.8125H941.996L961.156 67H949.941L946.391 56.4531ZM930.746 47.9102H943.543L937.109 28.75L930.746 47.9102Z" fill="#8B8B8B"/>
<path d="M2 37H341" stroke="#8B8B8B" stroke-width="3" stroke-linecap="round" stroke-linejoin="round"/>
</svg>
