<svg width="60" height="60" viewBox="0 0 60 60" fill="none" xmlns="http://www.w3.org/2000/svg">
<g clip-path="url(#clip0)">
<path d="M60.5874 30C60.5874 46.5685 47.1559 60 30.5874 60C14.0189 60 0.587402 46.5685 0.587402 30C0.587402 13.4315 14.0189 0 30.5874 0C47.1559 0 60.5874 13.4315 60.5874 30Z" fill="url(#paint0_radial)"/>
<path d="M11.1436 22.7229C11.2685 21.8403 11.3637 20.9527 11.5226 20.0765C12.423 15.1139 15.9363 11.7375 20.9598 11.5644C27.0083 11.3566 33.075 11.3456 39.1225 11.5635C44.5901 11.7604 48.5497 15.8088 48.7205 21.2782C48.9022 27.0858 48.9022 32.9077 48.7205 38.7153C48.5497 44.1847 44.5914 48.2327 39.123 48.43C33.0755 48.6483 27.0074 48.6538 20.9603 48.4268C15.4919 48.2212 11.7116 44.1636 11.3459 38.686C11.3143 38.2122 11.2127 37.7426 11.1436 37.2711C11.1436 32.4215 11.1436 27.572 11.1436 22.7229ZM30.0052 45.1885C32.7729 45.1885 35.5433 45.2714 38.3073 45.1693C42.6409 45.0086 45.3065 42.4223 45.4076 38.0928C45.5331 32.698 45.5331 27.2959 45.4076 21.9007C45.3065 17.5721 42.6391 14.9253 38.3073 14.8333C32.8091 14.717 27.3049 14.718 21.8067 14.8333C17.5078 14.9235 14.8345 17.5167 14.7178 21.7977C14.5695 27.2607 14.5695 32.7333 14.7178 38.1962C14.8345 42.4768 17.5078 45.01 21.8072 45.1693C24.5363 45.2709 27.2724 45.1885 30.0052 45.1885Z" fill="url(#paint1_linear)"/>
<path d="M11.1436 22.7229C11.2685 21.8403 11.3637 20.9527 11.5226 20.0765C12.423 15.1139 15.9363 11.7375 20.9598 11.5644C27.0083 11.3566 33.075 11.3456 39.1225 11.5635C44.5901 11.7604 48.5497 15.8088 48.7205 21.2782C48.9022 27.0858 48.9022 32.9077 48.7205 38.7153C48.5497 44.1847 44.5914 48.2327 39.123 48.43C33.0755 48.6483 27.0074 48.6538 20.9603 48.4268C15.4919 48.2212 11.7116 44.1636 11.3459 38.686C11.3143 38.2122 11.2127 37.7426 11.1436 37.2711C11.1436 32.4215 11.1436 27.572 11.1436 22.7229ZM30.0052 45.1885C32.7729 45.1885 35.5433 45.2714 38.3073 45.1693C42.6409 45.0086 45.3065 42.4223 45.4076 38.0928C45.5331 32.698 45.5331 27.2959 45.4076 21.9007C45.3065 17.5721 42.6391 14.9253 38.3073 14.8333C32.8091 14.717 27.3049 14.718 21.8067 14.8333C17.5078 14.9235 14.8345 17.5167 14.7178 21.7977C14.5695 27.2607 14.5695 32.7333 14.7178 38.1962C14.8345 42.4768 17.5078 45.01 21.8072 45.1693C24.5363 45.2709 27.2724 45.1885 30.0052 45.1885Z" fill="white"/>
<path d="M30.0004 20.3906C24.6931 20.3906 20.3901 24.6931 20.3901 30.0005C20.3901 35.3082 24.6931 39.6108 30.0004 39.6108C35.3082 39.6108 39.6107 35.3082 39.6107 30.0005C39.6107 24.6931 35.3082 20.3906 30.0004 20.3906ZM30.0004 36.302C26.52 36.302 23.6989 33.4808 23.6989 30.0005C23.6989 26.5201 26.52 23.6989 30.0004 23.6989C33.4808 23.6989 36.302 26.5201 36.302 30.0005C36.302 33.4808 33.4808 36.302 30.0004 36.302Z" fill="white"/>
<path d="M42.4579 19.9506C42.4579 21.2131 41.4343 22.2367 40.1718 22.2367C38.9093 22.2367 37.8853 21.2131 37.8853 19.9506C37.8853 18.6876 38.9093 17.6641 40.1718 17.6641C41.4343 17.6641 42.4579 18.6876 42.4579 19.9506Z" fill="white"/>
</g>
<defs>
<radialGradient id="paint0_radial" cx="0" cy="0" r="1" gradientUnits="userSpaceOnUse" gradientTransform="translate(12.8871 52.4352) scale(66.1694)">
<stop stop-color="#FAE100"/>
<stop offset="0.0544" stop-color="#FADC04"/>
<stop offset="0.1167" stop-color="#FBCE0E"/>
<stop offset="0.1829" stop-color="#FCB720"/>
<stop offset="0.2514" stop-color="#FE9838"/>
<stop offset="0.3054" stop-color="#FF7950"/>
<stop offset="0.4922" stop-color="#FF1C74"/>
<stop offset="1" stop-color="#6C1CD1"/>
</radialGradient>
<linearGradient id="paint1_linear" x1="41.9133" y1="18.1698" x2="17.6419" y2="42.4412" gradientUnits="userSpaceOnUse">
<stop stop-color="#833AB4" stop-opacity="0"/>
<stop offset="0.0922" stop-color="#9C3495"/>
<stop offset="0.2927" stop-color="#DC2546"/>
<stop offset="0.392" stop-color="#FD1D1D"/>
<stop offset="0.5589" stop-color="#FC6831"/>
<stop offset="0.6887" stop-color="#FC9B40"/>
<stop offset="0.7521" stop-color="#FCAF45"/>
<stop offset="0.7806" stop-color="#FDB750"/>
<stop offset="0.8656" stop-color="#FECB6A"/>
<stop offset="0.9415" stop-color="#FFD87A"/>
<stop offset="1" stop-color="#FFDC80"/>
</linearGradient>
<clipPath id="clip0">
<rect width="60" height="60" fill="white"/>
</clipPath>
</defs>
</svg>
